<!DOCTYPE svg PUBLIC "-//W3C//DTD SVG 1.1//EN" "http://www.w3.org/Graphics/SVG/1.1/DTD/svg11.dtd">
<!-- Uploaded to: SVG Repo, www.svgrepo.com, Transformed by: SVG Repo Mixer Tools -->
<svg width="800px" height="800px" viewBox="-11 -11 132.00 132.00" xmlns="http://www.w3.org/2000/svg" fill="#000000" transform="rotate(0)matrix(1, 0, 0, 1, 0, 0)">
<g id="SVGRepo_bgCarrier" stroke-width="0"/>
<g id="SVGRepo_tracerCarrier" stroke-linecap="round" stroke-linejoin="round"/>
<g id="SVGRepo_iconCarrier"> <g id="Chat" transform="translate(-376.031 -40.142)"> <g id="Group_8" data-name="Group 8"> <path id="Path_9" data-name="Path 9" d="M376.031,85.144a45,45,0,1,1,45,45A45,45,0,0,1,376.031,85.144Z" fill="#f844e0"/> </g> <g id="Group_9" data-name="Group 9"> <path id="Path_10" data-name="Path 10" d="M474.03,80.142H450.992L437.774,70.7a3,3,0,0,0-4.744,2.442v7h-8a3,3,0,0,0-3,3v9.269h-18a3,3,0,0,0-3,3v40.235a3,3,0,0,0,3,3h26.629l15.312,10.937a3,3,0,0,0,4.743-2.441v-8.5H463.03a3,3,0,0,0,3-3v-14.5h8a3,3,0,0,0,3-3v-35A3,3,0,0,0,474.03,80.142Zm-14,52.5H447.714a3,3,0,0,0-3,3v5.666l-11.35-8.106a2.99,2.99,0,0,0-1.744-.56H407.03V98.411h53Zm11-17.5h-5V95.411a3,3,0,0,0-3-3h-35V86.142h8a3,3,0,0,0,3-3V78.971l9.257,6.612a2.993,2.993,0,0,0,1.743.559h21Z" fill="#8100eb"/> <path id="Path_11" data-name="Path 11" d="M419.03,117.952a3,3,0,0,0,2.12-5.121,3.1,3.1,0,0,0-4.24,0,3,3,0,0,0,2.12,5.121Z" fill="#8100eb"/> <path id="Path_12" data-name="Path 12" d="M433.97,117.952a3,3,0,0,0,2.12-5.121,3.1,3.1,0,0,0-4.24,0,3.062,3.062,0,0,0-.88,2.121,3.006,3.006,0,0,0,3,3Z" fill="#8100eb"/> <path id="Path_13" data-name="Path 13" d="M448.92,117.952a3,3,0,0,0,2.12-5.121,3.106,3.106,0,0,0-4.24,0,3,3,0,0,0,2.12,5.121Z" fill="#8100eb"/> </g> </g> </g>
</svg>